<?xml version="1.0" encoding="UTF-8" standalone="no"?>
<!-- Created with Inkscape (http://www.inkscape.org/) -->

<svg
   width="309.39899mm"
   height="194.0014mm"
   viewBox="0 0 309.39898 194.0014"
   version="1.1"
   id="svg1"
   inkscape:version="1.4 (e7c3feb1, 2024-10-09)"
   sodipodi:docname="target_ladder_v2.svg"
   inkscape:export-filename="target_ladder_is739v2_tiny.png"
   inkscape:export-xdpi="50.816586"
   inkscape:export-ydpi="50.816586"
   xml:space="preserve"
   xmlns:inkscape="http://www.inkscape.org/namespaces/inkscape"
   xmlns:sodipodi="http://sodipodi.sourceforge.net/DTD/sodipodi-0.dtd"
   xmlns="http://www.w3.org/2000/svg"
   xmlns:svg="http://www.w3.org/2000/svg"><sodipodi:namedview
     id="namedview1"
     pagecolor="#ffffff"
     bordercolor="#000000"
     borderopacity="0.25"
     inkscape:showpageshadow="2"
     inkscape:pageopacity="0.0"
     inkscape:pagecheckerboard="0"
     inkscape:deskcolor="#d1d1d1"
     inkscape:document-units="mm"
     inkscape:zoom="1.6237007"
     inkscape:cx="455.74901"
     inkscape:cy="472.99357"
     inkscape:window-width="2008"
     inkscape:window-height="1257"
     inkscape:window-x="54"
     inkscape:window-y="44"
     inkscape:window-maximized="0"
     inkscape:current-layer="layer5"
     showgrid="false" /><defs
     id="defs1" /><g
     inkscape:groupmode="layer"
     id="layer6"
     inkscape:label="side_bar"
     style="display:inline;opacity:1"
     sodipodi:insensitive="true"
     transform="translate(337.70528,72.556928)"><path
       id="path6519"
       style="fill:#808080;stroke:none;stroke-width:0.4;stroke-linecap:butt;stroke-linejoin:bevel;stroke-miterlimit:10;stroke-dasharray:none;stroke-opacity:1"
       d="m -181.70555,-24.781289 -0.72347,0.08181 -5.4148,0.938206 -4.99648,1.035543 -4.86819,0.86815 -6.98086,0.554651 -7.24039,-0.25119 -7.45341,-1.013436 -5.87844,-1.364241 -5.40331,-2.140832 -4.35169,-3.246973 -2.81922,-4.401372 -1.65565,-5.347604 -0.85495,-5.884468 -0.18087,-4.603204 h -82.17816 l -14.99984,14.998699 V 84.944817 h 5.99959 l 128.24279,36.499663 h 13.75674 V -18.556907 c 0,-1.104172 0.89617,-1.999575 2.00101,-1.999575 h 4.9991 l 1.0005,-1.00022 z m -19.99893,8.724927 h -0.002 V 108.13158 c 0,1.38219 -1.11886,2.49882 -2.49969,2.49882 -0.23141,0 -0.46173,-0.0317 -0.68414,-0.0947 v 0 L -329.8902,74.959276 c -1.07446,-0.30615 -1.81612,-1.287542 -1.81612,-2.40409 l 5.9e-4,-88.611548 c 2.9e-4,-1.381056 1.11989,-2.500266 2.50027,-2.500266 v 0 h 125.00012 c 1.3811,0 2.50054,1.119709 2.50054,2.500545 z" /><path
       style="fill:#666666;fill-opacity:1;stroke:none;stroke-width:0.1;stroke-linecap:butt;stroke-linejoin:bevel;stroke-miterlimit:10;stroke-dasharray:none;stroke-opacity:1"
       d="M -179.70541,121.44448 V -25.008668 l -1.99986,0.227379 v 3.224587 l -1.00051,1.00022 h -4.99909 c -1.10484,0 -2.00101,0.895403 -2.00101,1.999575 V 121.44448 Z"
       id="path6520" /><path
       id="path6521"
       d="m -188.70591,-26.556543 v -0.0015 c 2.76166,0 5.00016,-2.238492 4.99994,-4.999885 v -17.998229 h 4.00068 v 24.547444 l -1.99988,0.227364 -0.72351,0.08193 -5.41481,0.938265 -4.99656,1.035513 -4.86826,0.868019 -6.98069,0.55468 -7.24046,-0.25122 -7.45341,-1.01345 -5.87855,-1.364182 -5.40312,-2.140803 -4.35183,-3.247003 -2.8193,-4.401357 -1.65545,-5.347736 -0.85498,-5.884395 -0.18099,-4.603071 h 28.82173 l -1.2e-4,17.998509 v 0 c 0,2.761672 2.23896,5.000164 4.99994,5.000619 h 17.99963"
       style="fill:#999999;stroke:none;stroke-width:0.1;stroke-linecap:butt;stroke-linejoin:bevel;stroke-miterlimit:10;stroke-dasharray:none;stroke-opacity:1"
       sodipodi:nodetypes="cccccccccccccccccccccccscc" /><path
       id="path6522"
       d="m -210.70496,-37.557724 c -0.64923,0.865784 -1.0004,1.918407 -1.00453,3.000281 l 0.004,-14.998684 h 0.99904 v 11.998403 z"
       style="fill:#4d4d4d;stroke:none;stroke-width:0.4;stroke-linecap:butt;stroke-linejoin:bevel;stroke-miterlimit:10;stroke-dasharray:none;stroke-opacity:1"
       sodipodi:nodetypes="cccccc" /><path
       id="path6523"
       d="m -184.70523,-49.556127 v 11.998403 c 0.64877,0.865784 0.99948,1.918407 0.99948,3.000281 v 0 -14.998684 z"
       style="fill:#4d4d4d;stroke:none;stroke-width:0.4;stroke-linecap:butt;stroke-linejoin:bevel;stroke-miterlimit:10;stroke-dasharray:none;stroke-opacity:1"
       sodipodi:nodetypes="ccsccc" /><path
       id="path6524"
       d="m -211.70548,-32.556649 v 0 c 0,0.332711 0.0333,0.664967 0.0996,0.990696 h 1e-4 c 0.0203,0.101747 0.0441,0.203052 0.0716,0.303446 l -0.001,1.5e-5 c 0.58574,2.185825 2.56671,3.705772 4.82982,3.705772 h 18.00014 v 0 c 2.26327,0 4.24424,-1.519947 4.83021,-3.705772 v 0 c 0.0266,-0.100394 0.0504,-0.2017 0.0709,-0.303461 v 0 c 0.0657,-0.325964 0.099,-0.65822 0.099,-0.990931 v 0.999207 c 0,2.761393 -2.23851,4.999885 -5.00016,4.999885 l -1.2e-4,0.0015 h -17.99975 c -2.76098,0 -4.99994,-2.238947 -4.99994,-5.000619 v 0 -0.999031"
       style="fill:#4d4d4d;stroke:none;stroke-width:0.1;stroke-linecap:butt;stroke-linejoin:bevel;stroke-miterlimit:10;stroke-dasharray:none;stroke-opacity:1"
       sodipodi:nodetypes="cscsccccscscscccccscc" /><path
       style="fill:#4d4d4d;fill-opacity:1;stroke:none;stroke-width:0.1;stroke-linecap:butt;stroke-linejoin:bevel;stroke-miterlimit:10;stroke-dasharray:none;stroke-opacity:1"
       d="m -183.4555,97.94278 a 1.2499913,1.2499913 0 0 1 -1.24998,1.249986 1.2499913,1.2499913 0 0 1 -1.24999,-1.249986 1.2499913,1.2499913 0 0 1 1.24999,-1.249986 1.2499913,1.2499913 0 0 1 1.24998,1.249986 z"
       id="path10227" /><path
       style="fill:#4d4d4d;fill-opacity:1;stroke:none;stroke-width:0.1;stroke-linecap:butt;stroke-linejoin:bevel;stroke-miterlimit:10;stroke-dasharray:none;stroke-opacity:1"
       d="m -183.4555,72.944194 a 1.2499913,1.2499913 0 0 1 -1.24998,1.249986 1.2499913,1.2499913 0 0 1 -1.24999,-1.249986 1.2499913,1.2499913 0 0 1 1.24999,-1.249986 1.2499913,1.2499913 0 0 1 1.24998,1.249986 z"
       id="path10226" /><path
       style="fill:#4d4d4d;fill-opacity:1;stroke:none;stroke-width:0.1;stroke-linecap:butt;stroke-linejoin:bevel;stroke-miterlimit:10;stroke-dasharray:none;stroke-opacity:1"
       d="m -183.4555,47.943315 a 1.2499913,1.2499913 0 0 1 -1.24998,1.249986 1.2499913,1.2499913 0 0 1 -1.24999,-1.249986 1.2499913,1.2499913 0 0 1 1.24999,-1.250001 1.2499913,1.2499913 0 0 1 1.24998,1.250001 z"
       id="path10225" /><path
       style="fill:#4d4d4d;fill-opacity:1;stroke:none;stroke-width:0.1;stroke-linecap:butt;stroke-linejoin:bevel;stroke-miterlimit:10;stroke-dasharray:none;stroke-opacity:1"
       d="m -183.4555,-2.0570315 a 1.2499914,1.2499914 0 0 1 -1.24998,1.24998588 1.2499914,1.2499914 0 0 1 -1.24999,-1.24998588 1.2499914,1.2499914 0 0 1 1.24999,-1.2499859 1.2499914,1.2499914 0 0 1 1.24998,1.2499859 z"
       id="path10224" /><path
       style="fill:#4d4d4d;fill-opacity:1;stroke:none;stroke-width:0.1;stroke-linecap:butt;stroke-linejoin:bevel;stroke-miterlimit:10;stroke-dasharray:none;stroke-opacity:1"
       d="m -183.4545,22.942142 a 1.2499914,1.2499914 0 0 1 -1.24998,1.249986 1.2499914,1.2499914 0 0 1 -1.24999,-1.249986 1.2499914,1.2499914 0 0 1 1.24999,-1.249986 1.2499914,1.2499914 0 0 1 1.24998,1.249986 z"
       id="path10223" /></g><g
     inkscape:groupmode="layer"
     id="layer7"
     inkscape:label="target_frame"
     style="display:inline;opacity:1"
     transform="translate(337.70528,72.556928)"
     sodipodi:insensitive="true"><g
       id="g10248"
       transform="matrix(1,0,0,-1,-2.8e-4,95.883978)"><path
         id="path10222"
         style="fill:#4d4d4d;fill-opacity:1;stroke:none;stroke-width:0.1;stroke-linecap:butt;stroke-linejoin:bevel;stroke-miterlimit:10;stroke-dasharray:none;stroke-opacity:1"
         d="m -114.30592,3.441346 c 4.14179,0 7.50018,3.358304 7.50018,7.500188 v 95.000696 c 0,4.14232 -3.35839,7.49951 -7.50018,7.49951 h -42.0007 c -4.14179,0 -7.49955,-3.35719 -7.49955,-7.49951 V 10.941534 c 0,-4.141805 3.35776,-7.50044 7.49955,-7.500188 l 42.0007,6.61e-4 z m 0,0.99994 v 6.61e-4 h -42.0007 c -3.58987,-2.51e-4 -6.49959,2.909736 -6.49959,6.499604 V 105.9416 c 0,3.58977 2.90972,6.50025 6.49959,6.50025 v 0 h 42.0007 c 3.58987,-2.6e-4 6.49959,-2.90975 6.49959,-6.49962 V 10.941534 c 0,-3.589947 -2.90972,-6.500248 -6.49959,-6.500248 z" /><path
         id="path10203"
         style="fill:#4d4d4d;fill-opacity:1;stroke:none;stroke-width:0.1;stroke-linecap:butt;stroke-linejoin:bevel;stroke-miterlimit:10;stroke-dasharray:none;stroke-opacity:1"
         d="m -51.30587,3.440701 c 4.141755,0 7.500179,3.358304 7.500179,7.500188 v 95.000681 c 0,4.14231 -3.358424,7.50018 -7.500179,7.50018 h -42.000035 c -4.141789,0 -7.500215,-3.35787 -7.500215,-7.50018 V 10.940889 c 0,-4.141808 3.358426,-7.499795 7.500215,-7.499543 h 42.000035 z m 0,1.000585 v 6.61e-4 l -42.000035,-6.61e-4 c -3.589868,-2.52e-4 -6.500252,2.909732 -6.500252,6.499603 v 95.000681 c 0,3.5898 2.910384,6.49962 6.500252,6.49962 v 0 h 42.000035 c 3.589834,-2.6e-4 6.49959,-2.91038 6.49959,-6.50025 V 10.940889 c 0,-3.58995 -2.909756,-6.499603 -6.49959,-6.499603 z" /><path
         id="path10199"
         style="fill:#4d4d4d;fill-opacity:1;stroke:none;stroke-width:0.1;stroke-linecap:butt;stroke-linejoin:bevel;stroke-miterlimit:10;stroke-dasharray:none;stroke-opacity:1"
         d="m -53.305757,-11.058417 v 6.62e-4 c 11.873941,0 21.499981,9.626629 21.499981,21.500629 v 95.998686 c 0,11.87451 -9.62604,21.49998 -21.499981,21.49998 H -154.30607 c -11.87401,0 -21.50001,-9.62547 -21.50001,-21.49998 V 10.442857 c 0,-11.87399 9.626,-21.500768 21.50001,-21.501274 z m 0,1.498617 -101.000313,0.0013 c -11.04583,9.92e-4 -20.00009,8.955536 -20.00009,20.001367 v 95.998693 c 0,11.04583 8.95426,20.00009 20.00009,20.00009 h 101.000313 c 11.045299,0 20.000058,-8.95426 20.000058,-20.00009 V 10.442857 c 0,-11.045851 -8.954759,-20.000722 -20.000058,-20.000722 z" /><path
         id="path10175"
         style="fill:#b3b3b3;stroke:none;stroke-width:0.4;stroke-linecap:butt;stroke-linejoin:bevel;stroke-miterlimit:10;stroke-dasharray:none;stroke-opacity:1"
         d="M -28.305999,-25.558827 V 144.44182 H -179.80649 v -29.00019 c 0,-1.10437 -0.89545,-1.99989 -1.99985,-1.99989 h -4.49974 l -0.99992,-0.99992 V 99.691941 h 3.5004 c 0.96626,0 1.74992,-0.783597 1.74992,-1.749888 0,-0.966788 -0.78366,-1.75055 -1.74992,-1.75055 h -3.5004 V 74.69218 h 3.5004 c 0.96626,2.65e-4 1.74992,-0.782975 1.74992,-1.749247 0,-0.966778 -0.78366,-1.75054 -1.74992,-1.75054 v 6.62e-4 h -3.5004 V 49.691777 l 3.5004,6.62e-4 c 0.96626,1.75e-4 1.74992,-0.783623 1.74992,-1.749892 0,-0.966268 -0.78366,-1.749895 -1.74992,-1.749895 v 6.61e-4 h -3.5004 V 24.692039 h 3.5004 c 0.96626,3.11e-4 1.74992,-0.782475 1.74992,-1.74925 0,-0.966268 -0.78366,-1.749892 -1.74992,-1.749892 v -0.0026 h -3.5004 V -0.307798 l 3.5004,6.62e-4 c 0.96626,3.1e-4 1.74992,-0.783624 1.74992,-1.749896 0,-0.966777 -0.78366,-1.75054 -1.74992,-1.75054 v -0.0026 h -3.5004 v -21.748676 z m -24.999758,14.50041 H -154.30607 c -11.87401,6.62e-4 -21.50001,9.627284 -21.50001,21.501274 v 95.998673 c 0,11.8745 9.626,21.49998 21.50001,21.49998 h 101.000313 c 11.873941,0 21.499981,-9.62548 21.499981,-21.49998 V 10.442857 c 0,-11.874 -9.62604,-21.500629 -21.499981,-21.500629 z" /><path
         id="path10162"
         style="fill:#b3b3b3;fill-opacity:1;stroke:none;stroke-width:0.1;stroke-linecap:butt;stroke-linejoin:bevel;stroke-miterlimit:10;stroke-dasharray:none;stroke-opacity:1"
         d="m -53.30592,-9.559866 -101.00055,0.0016 c -11.04581,9.92e-4 -19.99982,8.955729 -19.99982,20.001363 v 95.998743 c 0,11.0456 8.95401,19.99981 19.99982,19.99981 h 101.00055 c 11.044747,0 19.999812,-8.95421 19.999812,-19.99981 V 10.443048 c 0,-11.045654 -8.955065,-20.000847 -19.999812,-20.000847 z m 1.999877,13.000757 c 4.141223,0 7.500318,3.358506 7.500318,7.500318 v 95.000401 c 0,4.14225 -3.359095,7.50032 -7.500318,7.50032 h -42.00002 c -4.141784,0 -7.500317,-3.35807 -7.500317,-7.50032 V 10.941209 c 0,-4.141732 3.358533,-7.500053 7.500317,-7.499801 h 42.00002 z m -105.000827,5.17e-4 42.00054,5.17e-4 v -5.17e-4 c 4.14178,0 7.50032,3.358504 7.50032,7.500317 v 95.000405 c 0,4.14224 -3.35854,7.4998 -7.50032,7.4998 h -42.00054 c -4.14178,0 -7.4998,-3.35756 -7.4998,-7.4998 V 10.941725 c 0,-4.141734 3.35802,-7.500569 7.4998,-7.500317 z" /><path
         style="fill:#4d4d4d;fill-opacity:1;stroke:none;stroke-width:0.1;stroke-linecap:butt;stroke-linejoin:bevel;stroke-miterlimit:10;stroke-dasharray:none;stroke-opacity:1"
         d="m -39.806216,104.39145 a 0.80000019,0.80000019 0 0 1 0.800365,0.80034 0.80000019,0.80000019 0 0 1 -0.800365,0.79969 0.80000019,0.80000019 0 0 1 -0.79967,-0.79969 0.80000019,0.80000019 0 0 1 0.79967,-0.80034 z"
         id="path10244" /><path
         style="fill:#4d4d4d;fill-opacity:1;stroke:none;stroke-width:0.1;stroke-linecap:butt;stroke-linejoin:bevel;stroke-miterlimit:10;stroke-dasharray:none;stroke-opacity:1"
         d="m -167.80617,104.39145 a 0.80000019,0.80000019 0 0 1 0.7997,0.80034 0.80000019,0.80000019 0 0 1 -0.7997,0.79969 0.80000019,0.80000019 0 0 1 -0.80034,-0.79969 0.80000019,0.80000019 0 0 1 0.80034,-0.80034 z"
         id="path10243" /><path
         style="fill:#4d4d4d;fill-opacity:1;stroke:none;stroke-width:0.1;stroke-linecap:butt;stroke-linejoin:bevel;stroke-miterlimit:10;stroke-dasharray:none;stroke-opacity:1"
         d="m -103.8062,93.642102 a 0.80000019,0.80000019 0 0 1 0.79971,0.799693 0.80000019,0.80000019 0 0 1 -0.79971,0.800339 0.80000019,0.80000019 0 0 1 -0.80033,-0.800339 0.80000019,0.80000019 0 0 1 0.80033,-0.799693 z"
         id="path10242" /><path
         style="fill:#4d4d4d;fill-opacity:1;stroke:none;stroke-width:0.1;stroke-linecap:butt;stroke-linejoin:bevel;stroke-miterlimit:10;stroke-dasharray:none;stroke-opacity:1"
         d="m -39.806216,82.89211 a 0.80000019,0.80000019 0 0 1 0.799704,0.799693 0.80000019,0.80000019 0 0 1 -0.799704,0.800339 0.80000019,0.80000019 0 0 1 -0.800331,-0.800339 0.80000019,0.80000019 0 0 1 0.800331,-0.799693 z"
         id="path10241" /><path
         style="fill:#4d4d4d;fill-opacity:1;stroke:none;stroke-width:0.1;stroke-linecap:butt;stroke-linejoin:bevel;stroke-miterlimit:10;stroke-dasharray:none;stroke-opacity:1"
         d="m -167.80617,82.89211 a 0.80000019,0.80000019 0 0 1 0.7997,0.799693 0.80000019,0.80000019 0 0 1 -0.7997,0.800339 0.80000019,0.80000019 0 0 1 -0.80034,-0.800339 0.80000019,0.80000019 0 0 1 0.80034,-0.799693 z"
         id="path10240" /><path
         style="fill:#4d4d4d;fill-opacity:1;stroke:none;stroke-width:0.1;stroke-linecap:butt;stroke-linejoin:bevel;stroke-miterlimit:10;stroke-dasharray:none;stroke-opacity:1"
         d="m -39.806216,68.392992 a 0.80000019,0.80000019 0 0 1 0.799704,0.799693 0.80000019,0.80000019 0 0 1 -0.799704,0.800339 0.80000019,0.80000019 0 0 1 -0.800331,-0.800339 0.80000019,0.80000019 0 0 1 0.800331,-0.799693 z"
         id="path10239" /><path
         style="fill:#4d4d4d;fill-opacity:1;stroke:none;stroke-width:0.1;stroke-linecap:butt;stroke-linejoin:bevel;stroke-miterlimit:10;stroke-dasharray:none;stroke-opacity:1"
         d="m -167.80617,68.392992 a 0.80000019,0.80000019 0 0 1 0.7997,0.799693 0.80000019,0.80000019 0 0 1 -0.7997,0.800339 0.80000019,0.80000019 0 0 1 -0.80034,-0.800339 0.80000019,0.80000019 0 0 1 0.80034,-0.799693 z"
         id="path10238" /><path
         style="fill:#4d4d4d;fill-opacity:1;stroke:none;stroke-width:0.1;stroke-linecap:butt;stroke-linejoin:bevel;stroke-miterlimit:10;stroke-dasharray:none;stroke-opacity:1"
         d="m -103.8062,57.642354 a 0.80000019,0.80000019 0 0 1 0.79971,0.800339 0.80000019,0.80000019 0 0 1 -0.79971,0.799692 0.80000019,0.80000019 0 0 1 -0.80033,-0.799692 0.80000019,0.80000019 0 0 1 0.80033,-0.800339 z"
         id="path10237" /><path
         style="fill:#4d4d4d;fill-opacity:1;stroke:none;stroke-width:0.1;stroke-linecap:butt;stroke-linejoin:bevel;stroke-miterlimit:10;stroke-dasharray:none;stroke-opacity:1"
         d="m -39.806216,46.891715 a 0.80000019,0.80000019 0 0 1 0.799704,0.800339 0.80000019,0.80000019 0 0 1 -0.799704,0.799693 0.80000019,0.80000019 0 0 1 -0.800331,-0.799693 0.80000019,0.80000019 0 0 1 0.800331,-0.800339 z"
         id="path10236" /><path
         style="fill:#4d4d4d;fill-opacity:1;stroke:none;stroke-width:0.1;stroke-linecap:butt;stroke-linejoin:bevel;stroke-miterlimit:10;stroke-dasharray:none;stroke-opacity:1"
         d="m -167.80617,46.891715 a 0.80000019,0.80000019 0 0 1 0.7997,0.800339 0.80000019,0.80000019 0 0 1 -0.7997,0.799693 0.80000019,0.80000019 0 0 1 -0.80034,-0.799693 0.80000019,0.80000019 0 0 1 0.80034,-0.800339 z"
         id="path10235" /><path
         style="fill:#4d4d4d;fill-opacity:1;stroke:none;stroke-width:0.1;stroke-linecap:butt;stroke-linejoin:bevel;stroke-miterlimit:10;stroke-dasharray:none;stroke-opacity:1"
         d="m -39.806216,32.391952 a 0.80000019,0.80000019 0 0 1 0.799704,0.799693 0.80000019,0.80000019 0 0 1 -0.799704,0.800339 0.80000019,0.80000019 0 0 1 -0.800331,-0.800339 0.80000019,0.80000019 0 0 1 0.800331,-0.799693 z"
         id="path10234" /><path
         style="fill:#4d4d4d;fill-opacity:1;stroke:none;stroke-width:0.1;stroke-linecap:butt;stroke-linejoin:bevel;stroke-miterlimit:10;stroke-dasharray:none;stroke-opacity:1"
         d="m -167.80617,32.391952 a 0.80000019,0.80000019 0 0 1 0.7997,0.799693 0.80000019,0.80000019 0 0 1 -0.7997,0.800339 0.80000019,0.80000019 0 0 1 -0.80034,-0.800339 0.80000019,0.80000019 0 0 1 0.80034,-0.799693 z"
         id="path10233" /><path
         style="fill:#4d4d4d;fill-opacity:1;stroke:none;stroke-width:0.1;stroke-linecap:butt;stroke-linejoin:bevel;stroke-miterlimit:10;stroke-dasharray:none;stroke-opacity:1"
         d="m -103.8062,21.641313 a 0.80000019,0.80000019 0 0 1 0.79971,0.799694 0.80000019,0.80000019 0 0 1 -0.79971,0.800338 0.80000019,0.80000019 0 0 1 -0.80033,-0.800338 0.80000019,0.80000019 0 0 1 0.80033,-0.799694 z"
         id="path10232" /><path
         style="fill:#4d4d4d;fill-opacity:1;stroke:none;stroke-width:0.1;stroke-linecap:butt;stroke-linejoin:bevel;stroke-miterlimit:10;stroke-dasharray:none;stroke-opacity:1"
         d="m -39.806216,10.890675 a 0.80000019,0.80000019 0 0 1 0.799704,0.799693 0.80000019,0.80000019 0 0 1 -0.799704,0.800338 0.80000019,0.80000019 0 0 1 -0.800331,-0.800338 0.80000019,0.80000019 0 0 1 0.800331,-0.799693 z"
         id="path10231" /><path
         style="fill:#4d4d4d;fill-opacity:1;stroke:none;stroke-width:0.1;stroke-linecap:butt;stroke-linejoin:bevel;stroke-miterlimit:10;stroke-dasharray:none;stroke-opacity:1"
         d="m -167.80617,10.890675 a 0.80000019,0.80000019 0 0 1 0.7997,0.799693 0.80000019,0.80000019 0 0 1 -0.7997,0.800338 0.80000019,0.80000019 0 0 1 -0.80034,-0.800338 0.80000019,0.80000019 0 0 1 0.80034,-0.799693 z"
         id="path10230" /></g></g><g
     inkscape:label="target_ladder"
     inkscape:groupmode="layer"
     id="layer1"
     transform="translate(42.81572,24.337125)"
     style="display:inline;opacity:0.5"
     sodipodi:insensitive="true"><path
       id="path5141"
       style="fill:#0000ff;stroke:none;stroke-width:0.400005;stroke-linecap:butt;stroke-linejoin:miter;stroke-miterlimit:2;stroke-dasharray:none;stroke-opacity:1"
       d="m 123.93328,103.67195 h 67.00005 V 87.865689 c -1.02374,-0.23333 -1.75028,-1.14369 -1.75028,-2.19369 0,-1.04999 0.72654,-1.96032 1.75028,-2.19366 V 67.672076 h -67.00005 v 6.00014 h 4.9997 c 0.69031,0 1.25005,0.5597 1.25005,1.25005 0,0.69035 -0.55974,1.25005 -1.25006,1.25005 h -4.99969 v 18.999893 h 4.99969 c 0.69032,0 1.25006,0.5597 1.25006,1.25005 0,0.69035 -0.55974,1.25005 -1.25006,1.25005 h -4.99969 z m 15.49983,-7.999521 c 0,-2.20913 1.79064,-4.00026 3.99976,-4.00026 2.20911,0 4.00027,1.79113 4.00027,4.00026 0,2.20914 -1.79116,3.999755 -4.00027,3.999755 -2.20912,0 -3.99976,-1.790615 -3.99976,-3.999755 z m 0,-10.00043 c 0,-2.20884 1.79064,-3.99973 3.99976,-3.99973 2.20911,0 4.00027,1.79089 4.00027,3.99973 0,2.20914 -1.79116,4.00029 -4.00027,4.00029 -2.20912,0 -3.99976,-1.79115 -3.99976,-4.00029 z m 0,-9.999903 c 0,-2.20911 1.79064,-3.99976 3.99976,-3.99976 2.20911,0 4.00027,1.79065 4.00027,3.99976 0,2.20917 -1.79116,4.000293 -4.00027,4.000293 -2.20912,0 -3.99976,-1.791123 -3.99976,-4.000293 z m 10.99985,20.000333 c 0,-2.20913 1.79116,-4.00026 4.00027,-4.00026 2.20911,0 3.99975,1.79113 3.99975,4.00026 0,2.20914 -1.79064,3.999755 -3.99975,3.999755 -2.20911,0 -4.00027,-1.790615 -4.00027,-3.999755 z m 0,-10.00043 c 0,-2.20892 1.79116,-3.99973 4.00027,-3.99973 2.20912,0 3.99975,1.79081 3.99975,3.99973 0,2.20914 -1.79063,4.00029 -3.99975,4.00029 -2.20911,0 -4.00027,-1.79115 -4.00027,-4.00029 z m 0,-9.999903 c 0,-2.20911 1.79116,-3.99976 4.00027,-3.99976 2.20912,0 3.99975,1.79065 3.99975,3.99976 0,2.20917 -1.79063,4.000293 -3.99975,4.000293 -2.20911,0 -4.00027,-1.791123 -4.00027,-4.000293 z m 11.00036,20.000333 c 0,-2.20913 1.79063,-4.00026 3.99975,-4.00026 2.20915,0 4.00027,1.79113 4.00027,4.00026 0,2.20914 -1.79112,3.999755 -4.00027,3.999755 -2.20912,0 -3.99975,-1.790615 -3.99975,-3.999755 z m 0,-10.00043 c 0,-2.209 1.79064,-3.99973 3.99975,-3.99973 2.20915,0 4.00027,1.79073 4.00027,3.99973 0,2.20914 -1.79112,4.00029 -4.00027,4.00029 -2.20911,0 -3.99975,-1.79115 -3.99975,-4.00029 z m 0,-9.999903 c 0,-2.20911 1.79064,-3.99976 3.99975,-3.99976 2.20914,0 4.00027,1.79065 4.00027,3.99976 0,2.20917 -1.79113,4.000293 -4.00027,4.000293 -2.20911,0 -3.99975,-1.791123 -3.99975,-4.000293 z m 10.99984,20.000333 c 0,-2.20913 1.79062,-4.00026 3.99976,-4.00026 2.20912,0 4.00027,1.79113 4.00027,4.00026 0,2.20914 -1.79115,3.999755 -4.00027,3.999755 -2.20914,0 -3.99976,-1.790615 -3.99976,-3.999755 z m 0,-10.00043 c 0,-2.20908 1.79062,-3.99973 3.99976,-3.99973 2.20913,0 4.00027,1.79065 4.00027,3.99973 0,2.20914 -1.79114,4.00029 -4.00027,4.00029 -2.20914,0 -3.99976,-1.79115 -3.99976,-4.00029 z m 0,-9.999903 c 0,-2.20911 1.79062,-3.99976 3.99976,-3.99976 2.20913,0 4.00027,1.79065 4.00027,3.99976 0,2.20917 -1.79114,4.000293 -4.00027,4.000293 -2.20914,0 -3.99976,-1.791123 -3.99976,-4.000293 z" /><path
       id="path5143"
       style="fill:#0000ff;fill-opacity:1;stroke:none;stroke-width:0.400005;stroke-linecap:butt;stroke-linejoin:miter;stroke-miterlimit:2;stroke-dasharray:none;stroke-opacity:1"
       d="M 258.23282,67.6709 H 191.23276 V 51.864641 c 1.02375,-0.233336 1.75029,-1.143688 1.75029,-2.193686 0,-1.049999 -0.72654,-1.960325 -1.75029,-2.193661 V 31.671036 h 67.00006 v 6.000138 h -4.9997 c -0.69032,0 -1.25005,0.5597 -1.25005,1.250051 0,0.690351 0.55973,1.25005 1.25005,1.25005 h 4.9997 v 18.999888 h -4.9997 c -0.69032,0 -1.25005,0.5597 -1.25005,1.25005 0,0.690351 0.55973,1.250051 1.25005,1.250051 h 4.9997 z m -15.49985,-7.999516 c 0,-2.209138 -1.79062,-4.000262 -3.99975,-4.000262 -2.20912,0 -4.00027,1.791124 -4.00027,4.000262 0,2.209139 1.79115,3.999759 4.00027,3.999759 2.20913,0 3.99975,-1.79062 3.99975,-3.999759 z m 0,-10.000429 c 0,-2.208848 -1.79062,-3.999733 -3.99975,-3.999733 -2.20912,0 -4.00027,1.790885 -4.00027,3.999733 0,2.209138 1.79115,4.000288 4.00027,4.000288 2.20913,0 3.99975,-1.79115 3.99975,-4.000288 z m 0,-9.999901 c 0,-2.209112 -1.79062,-3.999759 -3.99975,-3.999759 -2.20912,0 -4.00027,1.790647 -4.00027,3.999759 0,2.209165 1.79115,4.000288 4.00027,4.000288 2.20913,0 3.99975,-1.791123 3.99975,-4.000288 z m -10.99984,20.00033 c 0,-2.209138 -1.79117,-4.000262 -4.00026,-4.000262 -2.20911,0 -3.99976,1.791124 -3.99976,4.000262 0,2.209139 1.79065,3.999759 3.99976,3.999759 2.20909,0 4.00026,-1.79062 4.00026,-3.999759 z m 0,-10.000429 c 0,-2.208927 -1.79115,-3.999733 -4.00026,-3.999733 -2.20914,0 -3.99976,1.790806 -3.99976,3.999733 0,2.209138 1.79062,4.000288 3.99976,4.000288 2.20911,0 4.00026,-1.79115 4.00026,-4.000288 z m 0,-9.999901 c 0,-2.209112 -1.79115,-3.999759 -4.00026,-3.999759 -2.20914,0 -3.99976,1.790647 -3.99976,3.999759 0,2.209165 1.79062,4.000288 3.99976,4.000288 2.20911,0 4.00026,-1.791123 4.00026,-4.000288 z m -11.00037,20.00033 c 0,-2.209138 -1.79062,-4.000262 -3.99973,-4.000262 -2.20916,0 -4.00029,1.791124 -4.00029,4.000262 0,2.209139 1.79113,3.999759 4.00029,3.999759 2.20911,0 3.99973,-1.79062 3.99973,-3.999759 z m 0,-10.000429 c 0,-2.209007 -1.79062,-3.999733 -3.99973,-3.999733 -2.20916,0 -4.00029,1.790726 -4.00029,3.999733 0,2.209138 1.79113,4.000288 4.00029,4.000288 2.20911,0 3.99973,-1.79115 3.99973,-4.000288 z m 0,-9.999901 c 0,-2.209112 -1.79062,-3.999759 -3.99973,-3.999759 -2.20914,0 -4.00029,1.790647 -4.00029,3.999759 0,2.209165 1.79115,4.000288 4.00029,4.000288 2.20911,0 3.99973,-1.791123 3.99973,-4.000288 z m -10.99984,20.00033 c 0,-2.209138 -1.79062,-4.000262 -3.99975,-4.000262 -2.20912,0 -4.00027,1.791124 -4.00027,4.000262 0,2.209139 1.79115,3.999759 4.00027,3.999759 2.20913,0 3.99975,-1.79062 3.99975,-3.999759 z m 0,-10.000429 c 0,-2.209086 -1.79062,-3.999733 -3.99975,-3.999733 -2.20912,0 -4.00027,1.790647 -4.00027,3.999733 0,2.209138 1.79115,4.000288 4.00027,4.000288 2.20913,0 3.99975,-1.79115 3.99975,-4.000288 z m 0,-9.999901 c 0,-2.209112 -1.79062,-3.999759 -3.99975,-3.999759 -2.20912,0 -4.00027,1.790647 -4.00027,3.999759 0,2.209165 1.79115,4.000288 4.00027,4.000288 2.20913,0 3.99975,-1.791123 3.99975,-4.000288 z" /><path
       id="path5145"
       style="fill:#ff0000;fill-opacity:1;stroke:none;stroke-width:0.400005;stroke-linecap:butt;stroke-linejoin:miter;stroke-miterlimit:2;stroke-dasharray:none;stroke-opacity:1"
       d="m 123.93386,139.67169 h 67.00004 v -15.80626 c -1.02372,-0.23334 -1.75027,-1.14369 -1.75027,-2.19369 0,-1.05 0.72655,-1.96032 1.75027,-2.19366 v -15.80626 h -67.00004 v 6.00014 h 4.9997 c 0.6903,0 1.25005,0.5597 1.25005,1.25005 0,0.69035 -0.55975,1.25005 -1.25005,1.25005 h -4.9997 v 18.99989 h 4.9997 c 0.6903,0 1.25005,0.5597 1.25005,1.25005 0,0.69035 -0.55975,1.25005 -1.25005,1.25005 h -4.9997 z m 15.49982,-7.99952 c 0,-2.20914 1.79065,-4.00026 3.99976,-4.00026 2.20911,0 4.00029,1.79112 4.00029,4.00026 0,2.20914 -1.79118,3.99976 -4.00029,3.99976 -2.20911,0 -3.99976,-1.79062 -3.99976,-3.99976 z m 0,-10.00043 c 0,-2.20884 1.79065,-3.99973 3.99976,-3.99973 2.20911,0 4.00029,1.79089 4.00029,3.99973 0,2.20914 -1.79118,4.00029 -4.00029,4.00029 -2.20911,0 -3.99976,-1.79115 -3.99976,-4.00029 z m 0,-9.9999 c 0,-2.20911 1.79065,-3.99976 3.99976,-3.99976 2.20911,0 4.00029,1.79065 4.00029,3.99976 0,2.20917 -1.79118,4.00029 -4.00029,4.00029 -2.20911,0 -3.99976,-1.79112 -3.99976,-4.00029 z m 10.99984,20.00033 c 0,-2.20914 1.79118,-4.00026 4.00029,-4.00026 2.20911,0 3.99976,1.79112 3.99976,4.00026 0,2.20914 -1.79065,3.99976 -3.99976,3.99976 -2.20911,0 -4.00029,-1.79062 -4.00029,-3.99976 z m 0,-10.00043 c 0,-2.20892 1.79118,-3.99973 4.00029,-3.99973 2.20911,0 3.99976,1.79081 3.99976,3.99973 0,2.20914 -1.79065,4.00029 -3.99976,4.00029 -2.20911,0 -4.00029,-1.79115 -4.00029,-4.00029 z m 0,-9.9999 c 0,-2.20911 1.79118,-3.99976 4.00029,-3.99976 2.20911,0 3.99976,1.79065 3.99976,3.99976 0,2.20917 -1.79065,4.00029 -3.99976,4.00029 -2.20911,0 -4.00029,-1.79112 -4.00029,-4.00029 z m 11.00037,20.00033 c 0,-2.20914 1.79065,-4.00026 3.99976,-4.00026 2.20914,0 4.00026,1.79112 4.00026,4.00026 0,2.20914 -1.79112,3.99976 -4.00026,3.99976 -2.20911,0 -3.99976,-1.79062 -3.99976,-3.99976 z m 0,-10.00043 c 0,-2.209 1.79065,-3.99973 3.99976,-3.99973 2.20914,0 4.00026,1.79073 4.00026,3.99973 0,2.20914 -1.79112,4.00029 -4.00026,4.00029 -2.20911,0 -3.99976,-1.79115 -3.99976,-4.00029 z m 0,-9.9999 c 0,-2.20911 1.79065,-3.99976 3.99976,-3.99976 2.20914,0 4.00026,1.79065 4.00026,3.99976 0,2.20917 -1.79112,4.00029 -4.00026,4.00029 -2.20911,0 -3.99976,-1.79112 -3.99976,-4.00029 z m 10.99984,20.00033 c 0,-2.20914 1.79062,-4.00026 3.99976,-4.00026 2.20914,0 4.00029,1.79112 4.00029,4.00026 0,2.20914 -1.79115,3.99976 -4.00029,3.99976 -2.20914,0 -3.99976,-1.79062 -3.99976,-3.99976 z m 0,-10.00043 c 0,-2.20908 1.79062,-3.99973 3.99976,-3.99973 2.20914,0 4.00029,1.79065 4.00029,3.99973 0,2.20914 -1.79115,4.00029 -4.00029,4.00029 -2.20914,0 -3.99976,-1.79115 -3.99976,-4.00029 z m 0,-9.9999 c 0,-2.20911 1.79062,-3.99976 3.99976,-3.99976 2.20914,0 4.00029,1.79065 4.00029,3.99976 0,2.20917 -1.79115,4.00029 -4.00029,4.00029 -2.20914,0 -3.99976,-1.79112 -3.99976,-4.00029 z" /><path
       id="path5146"
       style="fill:#0000ff;fill-opacity:1;stroke:none;stroke-width:0.400005;stroke-linecap:butt;stroke-linejoin:miter;stroke-miterlimit:2;stroke-dasharray:none;stroke-opacity:1"
       d="m 258.23311,139.67173 h -67.00007 v -15.80626 c 1.02375,-0.23333 1.7503,-1.14368 1.7503,-2.19368 0,-1.05 -0.72655,-1.96033 -1.7503,-2.19366 v -15.80626 h 67.00007 v 6.00014 h -4.9997 c -0.69033,0 -1.25005,0.5597 -1.25005,1.25005 0,0.69035 0.55972,1.25005 1.25005,1.25005 h 4.9997 V 131.172 h -4.9997 c -0.69033,0 -1.25005,0.5597 -1.25005,1.25005 0,0.69035 0.55972,1.25005 1.25005,1.25005 h 4.9997 z m -15.49985,-7.99951 c 0,-2.20914 -1.79062,-4.00026 -3.99976,-4.00026 -2.20911,0 -4.00026,1.79112 -4.00026,4.00026 0,2.20914 1.79115,3.99976 4.00026,3.99976 2.20914,0 3.99976,-1.79062 3.99976,-3.99976 z m 0,-10.00043 c 0,-2.20885 -1.79062,-3.99973 -3.99976,-3.99973 -2.20911,0 -4.00026,1.79088 -4.00026,3.99973 0,2.20914 1.79115,4.00029 4.00026,4.00029 2.20914,0 3.99976,-1.79115 3.99976,-4.00029 z m 0,-9.9999 c 0,-2.20911 -1.79062,-3.99976 -3.99976,-3.99976 -2.20911,0 -4.00026,1.79065 -4.00026,3.99976 0,2.20916 1.79115,4.00029 4.00026,4.00029 2.20914,0 3.99976,-1.79113 3.99976,-4.00029 z m -10.99984,20.00033 c 0,-2.20914 -1.79118,-4.00026 -4.00026,-4.00026 -2.20911,0 -3.99976,1.79112 -3.99976,4.00026 0,2.20914 1.79065,3.99976 3.99976,3.99976 2.20908,0 4.00026,-1.79062 4.00026,-3.99976 z m 0,-10.00043 c 0,-2.20893 -1.79115,-3.99973 -4.00026,-3.99973 -2.20914,0 -3.99976,1.7908 -3.99976,3.99973 0,2.20914 1.79062,4.00029 3.99976,4.00029 2.20911,0 4.00026,-1.79115 4.00026,-4.00029 z m 0,-9.9999 c 0,-2.20911 -1.79115,-3.99976 -4.00026,-3.99976 -2.20914,0 -3.99976,1.79065 -3.99976,3.99976 0,2.20916 1.79062,4.00029 3.99976,4.00029 2.20911,0 4.00026,-1.79113 4.00026,-4.00029 z m -11.00037,20.00033 c 0,-2.20914 -1.79062,-4.00026 -3.99973,-4.00026 -2.20917,0 -4.00029,1.79112 -4.00029,4.00026 0,2.20914 1.79112,3.99976 4.00029,3.99976 2.20911,0 3.99973,-1.79062 3.99973,-3.99976 z m 0,-10.00043 c 0,-2.20901 -1.79062,-3.99973 -3.99973,-3.99973 -2.20917,0 -4.00029,1.79072 -4.00029,3.99973 0,2.20914 1.79112,4.00029 4.00029,4.00029 2.20911,0 3.99973,-1.79115 3.99973,-4.00029 z m 0,-9.9999 c 0,-2.20911 -1.79062,-3.99976 -3.99973,-3.99976 -2.20914,0 -4.00029,1.79065 -4.00029,3.99976 0,2.20916 1.79115,4.00029 4.00029,4.00029 2.20911,0 3.99973,-1.79113 3.99973,-4.00029 z m -10.99984,20.00033 c 0,-2.20914 -1.79062,-4.00026 -3.99976,-4.00026 -2.20911,0 -4.00026,1.79112 -4.00026,4.00026 0,2.20914 1.79115,3.99976 4.00026,3.99976 2.20914,0 3.99976,-1.79062 3.99976,-3.99976 z m 0,-10.00043 c 0,-2.20909 -1.79062,-3.99973 -3.99976,-3.99973 -2.20911,0 -4.00026,1.79064 -4.00026,3.99973 0,2.20914 1.79115,4.00029 4.00026,4.00029 2.20914,0 3.99976,-1.79115 3.99976,-4.00029 z m 0,-9.9999 c 0,-2.20911 -1.79062,-3.99976 -3.99976,-3.99976 -2.20911,0 -4.00026,1.79065 -4.00026,3.99976 0,2.20916 1.79115,4.00029 4.00026,4.00029 2.20914,0 3.99976,-1.79113 3.99976,-4.00029 z" /><path
       id="path1"
       style="fill:#ff0000;fill-opacity:1;stroke:none;stroke-width:0.400005;stroke-linecap:butt;stroke-linejoin:miter;stroke-miterlimit:2;stroke-dasharray:none;stroke-opacity:1"
       d="m 123.93341,67.67096 h 66.9998 V 51.86473 c -1.02376,-0.23331 -1.75002,-1.14366 -1.75002,-2.19364 0,-1.04999 0.72626,-1.96057 1.75002,-2.19391 V 31.67097 h -66.9998 v 6.00012 h 5.0002 c 0.69035,0 1.24979,0.55969 1.24979,1.25005 0,0.69035 -0.55944,1.24978 -1.24979,1.24978 h -5.0002 v 19.00006 h 5.0002 c 0.69035,0 1.24979,0.55967 1.24979,1.25005 0,0.69035 -0.55944,1.24979 -1.24979,1.24979 h -5.0002 z m 19.50003,-8.00002 V 39.67096 h 0.99994 v 19.99998 z m 10.49983,-9.49989 v -1.0002 h 11.99999 v 1.0002 z m 18.50009,8.49995 c 0,-2.20911 1.79089,-4 4,-4 2.20914,0 4.00002,1.79089 4.00002,4 0,2.20914 -1.79088,4 -4.00002,4 -2.20911,0 -4,-1.79086 -4,-4 z m 2.49984,-18.0001 c 0,-0.82843 0.67175,-1.49989 1.50016,-1.49989 0.82843,0 1.49992,0.67146 1.49992,1.49989 0,0.82844 -0.67149,1.50017 -1.49992,1.50017 -0.82841,0 -1.50016,-0.67173 -1.50016,-1.50017 z" /><path
       id="path2"
       style="fill:#ff0000;fill-opacity:1;stroke:none;stroke-width:0.400005;stroke-linecap:butt;stroke-linejoin:miter;stroke-miterlimit:2;stroke-dasharray:none;stroke-opacity:1"
       d="M 258.23297,103.67181 H 191.23291 V 87.865549 c 1.02375,-0.23334 1.75029,-1.14369 1.75029,-2.19369 0,-1.05 -0.72654,-1.96032 -1.75029,-2.19366 V 67.671938 h 67.00006 v 6.00014 h -4.9997 c -0.69032,0 -1.25005,0.5597 -1.25005,1.25005 0,0.69035 0.55973,1.25005 1.25005,1.25005 h 4.9997 v 18.999891 h -4.9997 c -0.69032,0 -1.25005,0.5597 -1.25005,1.25005 0,0.69035 0.55973,1.25005 1.25005,1.25005 h 4.9997 z m -15.49985,-7.999521 c 0,-2.20914 -1.79062,-4.00026 -3.99975,-4.00026 -2.20912,0 -4.00027,1.79112 -4.00027,4.00026 0,2.20914 1.79115,3.999755 4.00027,3.999755 2.20913,0 3.99975,-1.790615 3.99975,-3.999755 z m 0,-10.00043 c 0,-2.20885 -1.79062,-3.99973 -3.99975,-3.99973 -2.20912,0 -4.00027,1.79088 -4.00027,3.99973 0,2.20914 1.79115,4.00029 4.00027,4.00029 2.20913,0 3.99975,-1.79115 3.99975,-4.00029 z m 0,-9.999901 c 0,-2.20911 -1.79062,-3.99976 -3.99975,-3.99976 -2.20912,0 -4.00027,1.79065 -4.00027,3.99976 0,2.20917 1.79115,4.000291 4.00027,4.000291 2.20913,0 3.99975,-1.791121 3.99975,-4.000291 z m -10.99984,20.000331 c 0,-2.20914 -1.79117,-4.00026 -4.00026,-4.00026 -2.20911,0 -3.99976,1.79112 -3.99976,4.00026 0,2.20914 1.79065,3.999755 3.99976,3.999755 2.20909,0 4.00026,-1.790615 4.00026,-3.999755 z m 0,-10.00043 c 0,-2.20892 -1.79115,-3.99973 -4.00026,-3.99973 -2.20914,0 -3.99976,1.79081 -3.99976,3.99973 0,2.20914 1.79062,4.00029 3.99976,4.00029 2.20911,0 4.00026,-1.79115 4.00026,-4.00029 z m 0,-9.999901 c 0,-2.20911 -1.79115,-3.99976 -4.00026,-3.99976 -2.20914,0 -3.99976,1.79065 -3.99976,3.99976 0,2.20917 1.79062,4.000291 3.99976,4.000291 2.20911,0 4.00026,-1.791121 4.00026,-4.000291 z m -11.00037,20.000331 c 0,-2.20914 -1.79062,-4.00026 -3.99973,-4.00026 -2.20916,0 -4.00029,1.79112 -4.00029,4.00026 0,2.20914 1.79113,3.999755 4.00029,3.999755 2.20911,0 3.99973,-1.790615 3.99973,-3.999755 z m 0,-10.00043 c 0,-2.209 -1.79062,-3.99973 -3.99973,-3.99973 -2.20916,0 -4.00029,1.79073 -4.00029,3.99973 0,2.20914 1.79113,4.00029 4.00029,4.00029 2.20911,0 3.99973,-1.79115 3.99973,-4.00029 z m 0,-9.999901 c 0,-2.20911 -1.79062,-3.99976 -3.99973,-3.99976 -2.20914,0 -4.00029,1.79065 -4.00029,3.99976 0,2.20917 1.79115,4.000291 4.00029,4.000291 2.20911,0 3.99973,-1.791121 3.99973,-4.000291 z m -10.99984,20.000331 c 0,-2.20914 -1.79062,-4.00026 -3.99975,-4.00026 -2.20912,0 -4.00027,1.79112 -4.00027,4.00026 0,2.20914 1.79115,3.999755 4.00027,3.999755 2.20913,0 3.99975,-1.790615 3.99975,-3.999755 z m 0,-10.00043 c 0,-2.20908 -1.79062,-3.99973 -3.99975,-3.99973 -2.20912,0 -4.00027,1.79065 -4.00027,3.99973 0,2.20914 1.79115,4.00029 4.00027,4.00029 2.20913,0 3.99975,-1.79115 3.99975,-4.00029 z m 0,-9.999901 c 0,-2.20911 -1.79062,-3.99976 -3.99975,-3.99976 -2.20912,0 -4.00027,1.79065 -4.00027,3.99976 0,2.20917 1.79115,4.000291 4.00027,4.000291 2.20913,0 3.99975,-1.791121 3.99975,-4.000291 z" /></g><g
     inkscape:groupmode="layer"
     id="layer5"
     inkscape:label="alpha_source_holder"
     style="display:inline;opacity:1"
     transform="translate(337.70528,72.556928)"><path
       id="path1455"
       d="m -187.06314,-51.766239 c -0.48479,-0.409168 -0.99278,-0.790032 -1.52144,-1.140704 h -0.92333 l 0.10918,1.346948 z"
       style="fill:#333333;fill-opacity:1;stroke:none;stroke-width:0.400004;stroke-linecap:butt;stroke-linejoin:miter;stroke-miterlimit:2;stroke-dasharray:none;stroke-opacity:1"
       sodipodi:nodetypes="ccc" /><path
       id="path1454"
       d="m -205.9027,-52.906943 h -0.92332 c -0.52866,0.350672 -1.03665,0.731536 -1.52145,1.140704 l 2.67192,0.253268 z"
       style="fill:#333333;fill-opacity:1;stroke:none;stroke-width:0.400004;stroke-linecap:butt;stroke-linejoin:miter;stroke-miterlimit:2;stroke-dasharray:none;stroke-opacity:1"
       sodipodi:nodetypes="ccc" /><path
       id="path2079"
       style="fill:#666666;stroke:none;stroke-width:0.400004;stroke-linecap:butt;stroke-linejoin:miter;stroke-miterlimit:2;stroke-dasharray:none;stroke-opacity:1"
       d="M -203.20548 -72.556928 C -204.31005 -72.556928 -205.20536 -71.661618 -205.20536 -70.55705 L -205.20536 -54.756981 C -205.20536 -53.100124 -206.54831 -51.757164 -208.20517 -51.757164 L -208.30543 -51.757164 C -209.41 -51.757164 -210.3053 -50.861337 -210.3053 -49.756769 L -210.3053 -28.55703 C -210.3053 -27.452458 -209.41 -26.557152 -208.30543 -26.557152 L -187.10517 -26.557152 C -186.0006 -26.557152 -185.10529 -27.452458 -185.10529 -28.55703 L -185.10529 -49.756769 C -185.10529 -50.861337 -186.0006 -51.757164 -187.10517 -51.757164 L -187.20542 -51.757164 C -188.86227 -51.757164 -190.20524 -53.100124 -190.20524 -54.756981 L -190.20524 -70.55705 C -190.20524 -71.661618 -191.10055 -72.556928 -192.20512 -72.556928 L -203.20548 -72.556928 z M -197.70556 -68.157197 C -195.49641 -68.157197 -193.70528 -66.366057 -193.70528 -64.156924 C -193.70528 -61.947783 -195.49641 -60.156651 -197.70556 -60.156651 C -199.91469 -60.156651 -201.70531 -61.947783 -201.70531 -64.156924 C -201.70531 -66.366057 -199.91469 -68.157197 -197.70556 -68.157197 z M -197.70556 -50.656973 C -191.35428 -50.656973 -186.20548 -45.508179 -186.20548 -39.1569 C -186.20548 -32.805626 -191.35428 -27.656826 -197.70556 -27.656826 C -204.05683 -27.656826 -209.20511 -32.805626 -209.20511 -39.1569 C -209.20511 -45.508179 -204.05683 -50.656973 -197.70556 -50.656973 z " /><path
       id="path1475"
       d="m -185.096,-28.514769 c 0.40917,-0.4848 0.79004,-0.992792 1.1407,-1.521449 v -18.241443 c -0.35066,-0.528653 -0.73153,-1.036645 -1.1407,-1.521441 l -0.009,0.04216 1e-5,21.200001 z"
       style="fill:#333333;fill-opacity:1;stroke:none;stroke-width:0.400004;stroke-linecap:butt;stroke-linejoin:miter;stroke-miterlimit:2;stroke-dasharray:none;stroke-opacity:1"
       sodipodi:nodetypes="cccccc" /><path
       id="path10250"
       d="m -210.30531,-49.756942 v 21.200005 l -0.009,0.04217 c -0.40918,-0.4848 -0.79004,-0.992792 -1.14071,-1.521449 v -18.241443 c 0.35067,-0.528653 0.73153,-1.036645 1.1407,-1.521445 z"
       style="fill:#333333;fill-opacity:1;stroke:none;stroke-width:0.1;stroke-linecap:butt;stroke-linejoin:miter;stroke-miterlimit:2;stroke-dasharray:none;stroke-opacity:1"
       sodipodi:nodetypes="cccccc" /><path
       id="path1592"
       d="m -205.80836,-28.903889 c 0,-1.187413 -0.96259,-2.149997 -2.15,-2.149997 -1.18741,0 -2.15,0.962584 -2.15,2.149997 0,1.187416 0.96259,2.150005 2.15,2.150005 1.18741,0 2.15,-0.962589 2.15,-2.150005"
       style="fill:#999999;fill-opacity:1;stroke:none;stroke-width:0.400004;stroke-linecap:butt;stroke-linejoin:miter;stroke-miterlimit:2;stroke-dasharray:none;stroke-opacity:1" /><path
       id="path1443"
       d="m -208.70835,-28.470873 0.75,0.433016 0.75,-0.433016 v -0.866028 l -0.75,-0.433009 -0.75,0.433009 z"
       style="fill:#666666;fill-opacity:1;stroke:none;stroke-width:0.400004;stroke-linecap:butt;stroke-linejoin:miter;stroke-miterlimit:2;stroke-dasharray:none;stroke-opacity:1"
       sodipodi:nodetypes="ccccccc" /><path
       id="path1595"
       d="m -185.30225,-28.903889 c 0,-1.187413 -0.96259,-2.149997 -2.15001,-2.149997 -1.18741,0 -2.14999,0.962584 -2.14999,2.149997 0,1.187416 0.96258,2.150005 2.14999,2.150005 1.18742,0 2.15001,-0.962589 2.15001,-2.150005"
       style="fill:#999999;fill-opacity:1;stroke:none;stroke-width:0.400004;stroke-linecap:butt;stroke-linejoin:miter;stroke-miterlimit:2;stroke-dasharray:none;stroke-opacity:1" /><path
       id="path1444"
       d="m -187.45225,-29.76991 -0.75,0.433009 v 0.866028 l 0.75,0.433016 0.75,-0.433016 v -0.866028 z"
       style="fill:#666666;fill-opacity:1;stroke:none;stroke-width:0.400004;stroke-linecap:butt;stroke-linejoin:miter;stroke-miterlimit:2;stroke-dasharray:none;stroke-opacity:1"
       sodipodi:nodetypes="ccccccc" /><path
       id="path1591"
       d="m -205.80836,-49.40999 c 0,-1.187412 -0.96259,-2.150005 -2.15,-2.150005 -1.18741,0 -2.15,0.962593 -2.15,2.150005 0,1.187413 0.96259,2.149997 2.15,2.149997 1.18741,0 2.15,-0.962584 2.15,-2.149997"
       style="fill:#999999;stroke:none;stroke-width:0.400004;stroke-linecap:butt;stroke-linejoin:miter;stroke-miterlimit:2;stroke-dasharray:none;stroke-opacity:1" /><path
       id="path1446"
       d="m -208.82355,-49.44785 0.39981,0.768212 0.8652,0.03788 0.46538,-0.73036 -0.3998,-0.768212 -0.8652,-0.03788 z"
       style="fill:#666666;fill-opacity:1;stroke:none;stroke-width:0.400004;stroke-linecap:butt;stroke-linejoin:miter;stroke-miterlimit:2;stroke-dasharray:none;stroke-opacity:1"
       sodipodi:nodetypes="ccccccc" /><path
       id="path1596"
       d="m -185.30225,-49.40999 c 0,-1.187412 -0.96259,-2.150005 -2.15001,-2.150005 -1.18741,0 -2.14999,0.962593 -2.14999,2.150005 0,1.187413 0.96258,2.149997 2.14999,2.149997 1.18742,0 2.15001,-0.962584 2.15001,-2.149997"
       style="fill:#999999;fill-opacity:1;stroke:none;stroke-width:0.400004;stroke-linecap:butt;stroke-linejoin:miter;stroke-miterlimit:2;stroke-dasharray:none;stroke-opacity:1" /><path
       id="path1457"
       d="m -187.45225,-50.276014 -0.75,0.433008 v 0.866028 l 0.75,0.433013 0.75,-0.433013 v -0.866028 z"
       style="fill:#666666;fill-opacity:1;stroke:none;stroke-width:0.400004;stroke-linecap:butt;stroke-linejoin:miter;stroke-miterlimit:2;stroke-dasharray:none;stroke-opacity:1"
       sodipodi:nodetypes="ccccccc" /><path
       id="path1672"
       style="fill:#999999;fill-opacity:1;stroke:none;stroke-width:0.400004;stroke-linecap:butt;stroke-linejoin:miter;stroke-miterlimit:2;stroke-dasharray:none;stroke-opacity:1"
       d="M -197.70556 -51.157201 C -204.33298 -51.157201 -209.70534 -45.784319 -209.70534 -39.1569 C -209.70534 -32.529482 -204.33298 -27.157115 -197.70556 -27.157115 C -191.07814 -27.157115 -185.70526 -32.529482 -185.70526 -39.1569 C -185.70526 -45.784319 -191.07814 -51.157201 -197.70556 -51.157201 z M -197.70556 -50.656973 C -191.35428 -50.656973 -186.20548 -45.508179 -186.20548 -39.1569 C -186.20548 -32.805626 -191.35428 -27.656826 -197.70556 -27.656826 C -204.05683 -27.656826 -209.20511 -32.805626 -209.20511 -39.1569 C -209.20511 -45.508179 -204.05683 -50.656973 -197.70556 -50.656973 z " /><path
       id="path1673"
       d="m -186.2053,-39.156937 c 0,-6.351279 -5.14873,-11.500005 -11.50001,-11.500005 -6.35127,0 -11.5,5.148726 -11.5,11.500005 0,6.351274 5.14873,11.5 11.5,11.5 6.35128,0 11.50001,-5.148726 11.50001,-11.5"
       style="fill:#ff0000;fill-opacity:0.5;stroke:none;stroke-width:0.400004;stroke-linecap:butt;stroke-linejoin:miter;stroke-miterlimit:2;stroke-dasharray:none;stroke-opacity:1" /></g><g
     inkscape:groupmode="layer"
     id="layer2"
     inkscape:label="labels"
     style="display:inline"
     sodipodi:insensitive="true"><rect
       style="fill:#0000ff;fill-opacity:1;stroke:none;stroke-width:2.64582;stroke-linejoin:round;stroke-miterlimit:0"
       id="rect3"
       width="6.526"
       height="33.634998"
       x="288.37378"
       y="128.00899" /><rect
       style="fill:#0000ff;fill-opacity:1;stroke:none;stroke-width:2.64582;stroke-linejoin:round;stroke-miterlimit:0"
       id="rect4"
       width="6.526"
       height="30.660999"
       x="288.37378"
       y="57.495167" /><rect
       style="fill:#ff0000;fill-opacity:1;stroke:none;stroke-width:2.64582;stroke-linejoin:round;stroke-miterlimit:0"
       id="rect5"
       width="6.526"
       height="29.712999"
       x="288.37378"
       y="93.97007" /><rect
       style="fill:#ff0000;fill-opacity:1;stroke:none;stroke-width:2.64582;stroke-linejoin:round;stroke-miterlimit:0"
       id="rect2"
       width="6.526"
       height="33.634998"
       x="173.9709"
       y="128.00894" /><rect
       style="fill:#0000ff;fill-opacity:1;stroke:none;stroke-width:2.64582;stroke-linejoin:round;stroke-miterlimit:0"
       id="rect1"
       width="6.526"
       height="29.712999"
       x="173.9709"
       y="93.9702" /><text
       xml:space="preserve"
       style="font-style:normal;font-variant:normal;font-weight:bold;font-stretch:normal;font-size:6.11374px;font-family:Arial;-inkscape-font-specification:'Arial, Bold';font-variant-ligatures:normal;font-variant-caps:normal;font-variant-numeric:normal;font-variant-east-asian:normal;text-align:start;letter-spacing:0.521771px;word-spacing:1.04355px;writing-mode:lr-tb;direction:ltr;text-anchor:start;display:inline;opacity:1;fill:#ff0000;fill-opacity:1;stroke-width:0.365239;stroke-linejoin:round;stroke-miterlimit:0;paint-order:markers fill stroke"
       x="-87.445686"
       y="293.82495"
       id="text1"
       transform="rotate(-90)"><tspan
         sodipodi:role="line"
         id="tspan1"
         style="font-style:normal;font-variant:normal;font-weight:bold;font-stretch:normal;font-size:6.11374px;font-family:Arial;-inkscape-font-specification:'Arial, Bold';font-variant-ligatures:normal;font-variant-caps:normal;font-variant-numeric:normal;font-variant-east-asian:normal;fill:#ff0000;fill-opacity:1;stroke-width:0.365239"
         x="-87.445686"
         y="293.82495">CARBON</tspan></text><text
       xml:space="preserve"
       style="font-style:normal;font-variant:normal;font-weight:bold;font-stretch:normal;font-size:6.11374px;font-family:Arial;-inkscape-font-specification:'Arial, Bold';font-variant-ligatures:normal;font-variant-caps:normal;font-variant-numeric:normal;font-variant-east-asian:normal;text-align:start;letter-spacing:0.521771px;word-spacing:1.04355px;writing-mode:lr-tb;direction:ltr;text-anchor:start;display:inline;opacity:1;fill:#0000ff;fill-opacity:1;stroke-width:0.365239;stroke-linejoin:round;stroke-miterlimit:0;paint-order:markers fill stroke"
       x="-122.97247"
       y="293.82495"
       id="text2"
       transform="rotate(-90)"><tspan
         sodipodi:role="line"
         id="tspan2"
         style="font-style:normal;font-variant:normal;font-weight:bold;font-stretch:normal;font-size:6.11374px;font-family:Arial;-inkscape-font-specification:'Arial, Bold';font-variant-ligatures:normal;font-variant-caps:normal;font-variant-numeric:normal;font-variant-east-asian:normal;fill:#0000ff;fill-opacity:1;stroke-width:0.365239"
         x="-122.97247"
         y="293.82495">CD2 500</tspan></text><text
       xml:space="preserve"
       style="font-style:normal;font-variant:normal;font-weight:bold;font-stretch:normal;font-size:6.11374px;font-family:Arial;-inkscape-font-specification:'Arial, Bold';font-variant-ligatures:normal;font-variant-caps:normal;font-variant-numeric:normal;font-variant-east-asian:normal;text-align:start;letter-spacing:0.521771px;word-spacing:1.04355px;writing-mode:lr-tb;direction:ltr;text-anchor:start;display:inline;opacity:1;fill:#ff0000;fill-opacity:1;stroke-width:0.365239;stroke-linejoin:round;stroke-miterlimit:0;paint-order:markers fill stroke"
       x="-122.96129"
       y="179.42207"
       id="text4"
       transform="rotate(-90)"><tspan
         sodipodi:role="line"
         id="tspan4"
         style="font-style:normal;font-variant:normal;font-weight:bold;font-stretch:normal;font-size:6.11374px;font-family:Arial;-inkscape-font-specification:'Arial, Bold';font-variant-ligatures:normal;font-variant-caps:normal;font-variant-numeric:normal;font-variant-east-asian:normal;fill:#ff0000;fill-opacity:1;stroke-width:0.365239"
         x="-122.96129"
         y="179.42207">CD2 500</tspan></text><text
       xml:space="preserve"
       style="font-style:normal;font-variant:normal;font-weight:bold;font-stretch:normal;font-size:6.11374px;font-family:Arial;-inkscape-font-specification:'Arial, Bold';font-variant-ligatures:normal;font-variant-caps:normal;font-variant-numeric:normal;font-variant-east-asian:normal;text-align:start;letter-spacing:0.521771px;word-spacing:1.04355px;writing-mode:lr-tb;direction:ltr;text-anchor:start;display:inline;opacity:1;fill:#ff0000;fill-opacity:1;stroke-width:0.365239;stroke-linejoin:round;stroke-miterlimit:0;paint-order:markers fill stroke"
       x="-122.97261"
       y="179.42207"
       id="text5"
       transform="rotate(-90)"><tspan
         sodipodi:role="line"
         id="tspan5"
         style="font-style:normal;font-variant:normal;font-weight:bold;font-stretch:normal;font-size:6.11374px;font-family:Arial;-inkscape-font-specification:'Arial, Bold';font-variant-ligatures:normal;font-variant-caps:normal;font-variant-numeric:normal;font-variant-east-asian:normal;fill:#ff0000;fill-opacity:1;stroke-width:0.365239"
         x="-122.97261"
         y="179.42207">CD2 500</tspan></text><text
       xml:space="preserve"
       style="font-style:normal;font-variant:normal;font-weight:bold;font-stretch:normal;font-size:6.11374px;font-family:Arial;-inkscape-font-specification:'Arial, Bold';font-variant-ligatures:normal;font-variant-caps:normal;font-variant-numeric:normal;font-variant-east-asian:normal;text-align:start;letter-spacing:0.521771px;word-spacing:1.04355px;writing-mode:lr-tb;direction:ltr;text-anchor:start;display:inline;opacity:1;fill:#0000ff;fill-opacity:1;stroke-width:0.365239;stroke-linejoin:round;stroke-miterlimit:0;paint-order:markers fill stroke"
       x="-160.93332"
       y="179.42207"
       id="text6"
       transform="rotate(-90)"><tspan
         sodipodi:role="line"
         id="tspan6"
         style="font-style:normal;font-variant:normal;font-weight:bold;font-stretch:normal;font-size:6.11374px;font-family:Arial;-inkscape-font-specification:'Arial, Bold';font-variant-ligatures:normal;font-variant-caps:normal;font-variant-numeric:normal;font-variant-east-asian:normal;fill:#0000ff;fill-opacity:1;stroke-width:0.365239"
         x="-160.93332"
         y="179.42207">CD2 1000</tspan></text><text
       xml:space="preserve"
       style="font-style:normal;font-variant:normal;font-weight:bold;font-stretch:normal;font-size:6.11374px;font-family:Arial;-inkscape-font-specification:'Arial, Bold';font-variant-ligatures:normal;font-variant-caps:normal;font-variant-numeric:normal;font-variant-east-asian:normal;text-align:start;letter-spacing:0.521771px;word-spacing:1.04355px;writing-mode:lr-tb;direction:ltr;text-anchor:start;display:inline;opacity:1;fill:#ff0000;fill-opacity:1;stroke-width:0.365239;stroke-linejoin:round;stroke-miterlimit:0;paint-order:markers fill stroke"
       x="-160.93336"
       y="293.82495"
       id="text7"
       transform="rotate(-90)"><tspan
         sodipodi:role="line"
         id="tspan7"
         style="font-style:normal;font-variant:normal;font-weight:bold;font-stretch:normal;font-size:6.11374px;font-family:Arial;-inkscape-font-specification:'Arial, Bold';font-variant-ligatures:normal;font-variant-caps:normal;font-variant-numeric:normal;font-variant-east-asian:normal;fill:#ff0000;fill-opacity:1;stroke-width:0.365239"
         x="-160.93336"
         y="293.82495">CD2 1000</tspan></text><text
       xml:space="preserve"
       style="font-style:normal;font-variant:normal;font-weight:bold;font-stretch:normal;font-size:6.11374px;font-family:Arial;-inkscape-font-specification:'Arial, Bold';font-variant-ligatures:normal;font-variant-caps:normal;font-variant-numeric:normal;font-variant-east-asian:normal;text-align:start;letter-spacing:0.521771px;word-spacing:1.04355px;writing-mode:lr-tb;direction:ltr;text-anchor:start;display:inline;opacity:1;fill:#ffffff;fill-opacity:1;stroke-width:0.365239;stroke-linejoin:round;stroke-miterlimit:0;paint-order:markers fill stroke"
       x="162.95023"
       y="35.446247"
       id="text8"><tspan
         sodipodi:role="line"
         id="tspan8"
         style="font-style:normal;font-variant:normal;font-weight:bold;font-stretch:normal;font-size:6.11374px;font-family:Arial;-inkscape-font-specification:'Arial, Bold';font-variant-ligatures:normal;font-variant-caps:normal;font-variant-numeric:normal;font-variant-east-asian:normal;fill:#ffffff;fill-opacity:1;stroke-width:0.365239"
         x="162.95023"
         y="35.446247">THE BEAM IS COMING TOWARDS YOU</tspan></text><text
       xml:space="preserve"
       style="font-style:normal;font-variant:normal;font-weight:bold;font-stretch:normal;font-size:6.11374px;font-family:Arial;-inkscape-font-specification:'Arial, Bold';font-variant-ligatures:normal;font-variant-caps:normal;font-variant-numeric:normal;font-variant-east-asian:normal;text-align:start;letter-spacing:0.521771px;word-spacing:1.04355px;writing-mode:lr-tb;direction:ltr;text-anchor:start;display:inline;opacity:1;fill:#ff0000;fill-opacity:1;stroke-width:0.365239;stroke-linejoin:round;stroke-miterlimit:0;paint-order:markers fill stroke"
       x="-122.97261"
       y="179.42207"
       id="text3"
       transform="rotate(-90)"><tspan
         sodipodi:role="line"
         id="tspan3"
         style="font-style:normal;font-variant:normal;font-weight:bold;font-stretch:normal;font-size:6.11374px;font-family:Arial;-inkscape-font-specification:'Arial, Bold';font-variant-ligatures:normal;font-variant-caps:normal;font-variant-numeric:normal;font-variant-east-asian:normal;fill:#ff0000;fill-opacity:1;stroke-width:0.365239"
         x="-122.97261"
         y="179.42207">CD2 500</tspan></text></g></svg>
